<svg xmlns="http://www.w3.org/2000/svg" id="Layer_1" data-name="Layer 1" width="6.24in" height="4.49in" viewBox="0 0 449.25 323.02"><defs><style> .cls-1 { fill: #fff; } </style></defs><g><path class="cls-1" d="M26.69,252.5H6.11v22.78H1.67V221.81H27.6Q48,221.81,48,237.34q0,8.52-7.89,12.39A29.9,29.9,0,0,1,26.69,252.5Zm1.39-25.88h-22v21.06h22a21.37,21.37,0,0,0,10.08-2.21q5.24-2.76,5.23-8Q43.45,226.63,28.08,226.62Z"></path><path class="cls-1" d="M55.79,275.28V221.81H98.36v4.81H60.16v18.45H94v4.74H60.16v20.66H98.78v4.81Z"></path><path class="cls-1" d="M149.86,275.28,109.66,229v46.29h-4.42V221.81h4.42q7.05,8.52,20.16,23.26,14.1,15.78,20.1,22.87V221.81h4.43v53.47Z"></path><path class="cls-1" d="M183.57,275.28H164.2V221.81h22.48q12,0,19.12,5.6,8.67,6.76,8.68,21.21T204,270Q195.92,275.27,183.57,275.28Zm19.62-43.92q-6-4.74-16.58-4.74h-18v43.85h15.18q11,0,17.72-4.41,8.52-5.54,8.51-17.44Q210.05,236.88,203.19,231.36Z"></path><path class="cls-1" d="M263,272.28q-5.59,3.54-16,3.55T231,272.2q-7.77-4.95-7.77-17.19v-33.2h4.43v33.12q0,16.1,19.43,16.09t19.42-15.78V221.81h4.44v33.36Q270.91,267.23,263,272.28Z"></path><path class="cls-1" d="M280.83,275.28V221.81h4.43v48.66h35.09v4.81Z"></path><path class="cls-1" d="M365.3,272.28q-5.6,3.54-16,3.55t-16.09-3.63q-7.77-4.95-7.78-17.19v-33.2h4.43v33.12q0,16.1,19.44,16.09t19.42-15.78V221.81h4.43v33.36Q373.19,267.23,365.3,272.28Z"></path><path class="cls-1" d="M439.09,275.28V230.56L415,275.28h-3.35l-24.1-44.72v44.72h-4.43V221.81H388l25.32,47,25.43-47h4.8v53.47Z"></path></g><g><path class="cls-1" d="M8.57,313.78h-7v9H0V301.64H8.88c4.67,0,7,2,7,6.14a5.22,5.22,0,0,1-2.71,4.91A9.12,9.12,0,0,1,8.57,313.78Zm.48-10.24H1.52v8.33H9.07a6.52,6.52,0,0,0,3.45-.87,3.52,3.52,0,0,0,1.79-3.18C14.31,305,12.55,303.54,9.05,303.54Z"></path><path class="cls-1" d="M40.63,312.47q2.53,1.36,2.54,4.83v5.49H41.63V317.4q0-3.87-5.19-3.87H29v9.26H27.48V301.64h9.21q6.74,0,6.74,5.68A5.35,5.35,0,0,1,40.63,312.47Zm-3.88-8.93H29v8.06h7.31a7.44,7.44,0,0,0,3.61-.82,3.56,3.56,0,0,0,2-3.4C41.91,304.83,40.2,303.54,36.75,303.54Z"></path><path class="cls-1" d="M71.89,320.74A10.2,10.2,0,0,1,65.07,323a10.26,10.26,0,0,1-6.79-2.25c-2.22-1.89-3.34-4.75-3.34-8.55s1.12-6.51,3.36-8.36a10.42,10.42,0,0,1,6.77-2.12,10.36,10.36,0,0,1,6.76,2.12c2.27,1.82,3.39,4.61,3.39,8.36S74.11,318.84,71.89,320.74ZM71,305.48a9,9,0,0,0-5.93-1.84,9.19,9.19,0,0,0-5.7,1.68c-1.93,1.48-2.88,3.77-2.88,6.9s.88,5.33,2.67,6.9a8.77,8.77,0,0,0,5.91,2,9,9,0,0,0,5.77-1.81c1.91-1.54,2.87-3.89,2.87-7.08C73.71,309.2,72.8,307,71,305.48Z"></path><path class="cls-1" d="M95.44,313.78h-7v9H86.88V301.64h8.88q7,0,7,6.14a5.23,5.23,0,0,1-2.71,4.91A9.13,9.13,0,0,1,95.44,313.78Zm.48-10.24H88.39v8.33h7.55a6.5,6.5,0,0,0,3.45-.87,3.52,3.52,0,0,0,1.79-3.18C101.18,305,99.43,303.54,95.92,303.54Z"></path><path class="cls-1" d="M114.35,322.79V301.64h14.58v1.9H115.85v7.31h11.59v1.87H115.85v8.17h13.23v1.9Z"></path><path class="cls-1" d="M153.38,312.47q2.53,1.36,2.54,4.83v5.49h-1.54V317.4q0-3.87-5.19-3.87h-7.43v9.26h-1.52V301.64h9.21q6.74,0,6.74,5.68A5.36,5.36,0,0,1,153.38,312.47Zm-3.87-8.93h-7.75v8.06h7.29a7.45,7.45,0,0,0,3.62-.82,3.56,3.56,0,0,0,2-3.4C154.67,304.83,152.94,303.54,149.51,303.54Z"></path><path class="cls-1" d="M175.6,303.54v19.25h-1.52V303.54h-7.3v-1.9h16.1v1.9Z"></path><path class="cls-1" d="M202.1,312.72v10.07h-1.52V312.72l-9.36-11.08h2.21l7.9,9.3,7.9-9.3h2.18Z"></path><path class="cls-1" d="M249.87,313.78H242.8v9h-1.51V301.64h8.89q7,0,7,6.14a5.23,5.23,0,0,1-2.7,4.91A9.12,9.12,0,0,1,249.87,313.78Zm.47-10.24H242.8v8.33h7.56a6.56,6.56,0,0,0,3.46-.87,3.52,3.52,0,0,0,1.79-3.18C255.61,305,253.85,303.54,250.34,303.54Z"></path><path class="cls-1" d="M284.44,322.79l-2.73-6.51H271.52l-2.79,6.51h-1.79l9.12-21.15h1.3l8.83,21.15Zm-7.72-18.47-4.37,10.05h8.57Z"></path><path class="cls-1" d="M309.84,312.47q2.54,1.36,2.54,4.83v5.49h-1.54V317.4q0-3.87-5.18-3.87h-7.45v9.26H296.7V301.64h9.21q6.73,0,6.74,5.68A5.36,5.36,0,0,1,309.84,312.47ZM306,303.54h-7.75v8.06h7.31a7.5,7.5,0,0,0,3.62-.82,3.57,3.57,0,0,0,2-3.4C311.13,304.83,309.41,303.54,306,303.54Z"></path><path class="cls-1" d="M332.06,303.54v19.25h-1.52V303.54h-7.31v-1.9h16.11v1.9Z"></path><path class="cls-1" d="M365.42,322.79l-13.78-18.31v18.31h-1.5V301.64h1.5c1.62,2.25,3.92,5.31,6.93,9.21q4.81,6.24,6.88,9V301.64H367v21.15Z"></path><path class="cls-1" d="M379.28,322.79V301.64h14.59v1.9H380.78v7.31h11.58v1.87H380.78v8.17H394v1.9Z"></path><path class="cls-1" d="M418.3,312.47c1.7.91,2.54,2.52,2.54,4.83v5.49h-1.53V317.4q0-3.87-5.19-3.87h-7.45v9.26h-1.51V301.64h9.22q6.74,0,6.73,5.68A5.34,5.34,0,0,1,418.3,312.47Zm-3.86-8.93h-7.77v8.06H414a7.41,7.41,0,0,0,3.61-.82,3.55,3.55,0,0,0,2-3.4C419.59,304.83,417.87,303.54,414.44,303.54Z"></path><path class="cls-1" d="M446.37,321.92a10.71,10.71,0,0,1-5,1.1,11.39,11.39,0,0,1-5.46-1.16c-2.16-1.17-3.23-3.16-3.23-6v-1h1.5v.85q0,5.37,7.23,5.36a10.12,10.12,0,0,0,3.93-.69,3.34,3.34,0,0,0,2.37-3.21,2.94,2.94,0,0,0-.84-2.28,5.63,5.63,0,0,0-2.11-1c-.53-.17-1.86-.5-4-1a23,23,0,0,1-4.87-1.53,4.72,4.72,0,0,1-2.62-4.44q0-5.52,7.58-5.52,7.89,0,8,7.12h-1.52c-.11-2.3-.88-3.79-2.27-4.49a9.59,9.59,0,0,0-4.22-.72c-4,0-6,1.2-6,3.61a2.91,2.91,0,0,0,1.56,2.63,13.62,13.62,0,0,0,3.91,1.17c3.4.68,5.67,1.38,6.8,2.13a4.85,4.85,0,0,1,2.18,4.43A4.91,4.91,0,0,1,446.37,321.92Z"></path></g><g><g><polygon class="cls-1" points="266.75 17.34 277.79 174.04 283.19 17.04 266.75 17.34"></polygon><path class="cls-1" d="M287.12,12.05A12.23,12.23,0,1,1,274.71,0,12.23,12.23,0,0,1,287.12,12.05Z"></path></g><g><polygon class="cls-1" points="210.65 33.21 278.23 175.02 225.85 26.92 210.65 33.21"></polygon><path class="cls-1" d="M227.68,20.84a12.23,12.23,0,1,1-16-6.67A12.23,12.23,0,0,1,227.68,20.84Z"></path></g><g><polygon class="cls-1" points="161.67 68.21 277.78 174.04 173.37 56.65 161.67 68.21"></polygon><path class="cls-1" d="M172.77,50.32a12.24,12.24,0,1,1-17.3-.14A12.21,12.21,0,0,1,172.77,50.32Z"></path></g><g><polygon class="cls-1" points="130.65 122.85 278.98 174.59 136.87 107.63 130.65 122.85"></polygon><path class="cls-1" d="M133.84,102a12.24,12.24,0,1,1-16,6.66A12.23,12.23,0,0,1,133.84,102Z"></path></g><g><polygon class="cls-1" points="123.36 176.14 280.45 174.2 124.02 159.71 123.36 176.14"></polygon><path class="cls-1" d="M119.27,155.49a12.24,12.24,0,1,1-12.75,11.7A12.24,12.24,0,0,1,119.27,155.49Z"></path></g><path class="cls-1" d="M284.45,177.9A9,9,0,1,1,283,165.28,9,9,0,0,1,284.45,177.9Z"></path></g></svg>