<svg xmlns="http://www.w3.org/2000/svg" viewBox="105 -10 195 195" id="pendulum-mark">
  <defs><style>.cls-1 { fill: #215587; } .cls-2 { fill: #0c2c47; }
.cls-3 { fill: #1a4373; }
.cls-4 { fill: #215587; }
.cls-5 { fill: #3d7aaf; }
.cls-6 { fill: #7ba3c8; }</style></defs>
  <g><g><polygon class="cls-2" points="266.75 17.34 277.79 174.04 283.19 17.04 266.75 17.34"></polygon><path class="cls-2" d="M287.12,12.05A12.23,12.23,0,1,1,274.71,0,12.23,12.23,0,0,1,287.12,12.05Z"></path></g><g><polygon class="cls-3" points="210.65 33.21 278.23 175.02 225.85 26.92 210.65 33.21"></polygon><path class="cls-3" d="M227.68,20.84a12.23,12.23,0,1,1-16-6.67A12.23,12.23,0,0,1,227.68,20.84Z"></path></g><g><polygon class="cls-4" points="161.67 68.21 277.78 174.04 173.37 56.65 161.67 68.21"></polygon><path class="cls-4" d="M172.77,50.32a12.24,12.24,0,1,1-17.3-.14A12.21,12.21,0,0,1,172.77,50.32Z"></path></g><g><polygon class="cls-5" points="130.65 122.85 278.98 174.59 136.87 107.63 130.65 122.85"></polygon><path class="cls-5" d="M133.84,102a12.24,12.24,0,1,1-16,6.66A12.23,12.23,0,0,1,133.84,102Z"></path></g><g><polygon class="cls-6" points="123.36 176.14 280.45 174.2 124.02 159.71 123.36 176.14"></polygon><path class="cls-6" d="M119.27,155.49a12.24,12.24,0,1,1-12.75,11.7A12.24,12.24,0,0,1,119.27,155.49Z"></path></g><path class="cls-1" d="M284.45,177.9A9,9,0,1,1,283,165.28,9,9,0,0,1,284.45,177.9Z"></path></g>
</svg>